<svg id="Capa_1" data-name="Capa 1" xmlns="http://www.w3.org/2000/svg" viewBox="0 0 1642.24 2136.97"><title>Mesa de trabajo 33</title><path d="M940.91,984.83l-87.27-7.08c.62,1.32,1.2,2.66,1.73,4l87.27,7.08a14.75,14.75,0,0,1-1.18,29.45c-.4,0-.8,0-1.21,0l-80.42-6.52c-.06.79-.13,1.58-.22,2.37h0c-.21,1.83-.48,3.63-.83,5.41l76.46,6.21a14.75,14.75,0,0,1-1.18,29.45c-.4,0-.8,0-1.21,0l-87-7.06c-.46.6-.94,1.2-1.42,1.78l76.39,6.2a14.75,14.75,0,0,1-1.17,29.45c-.4,0-.8,0-1.21,0l-175.19-14.21.15-1.82-47.5-5.33,15.15-135L781.92,937l64.52-46.82a12.21,12.21,0,0,1,17.06,2.71l3,4.1a12.22,12.22,0,0,1-2.71,17.06l-42.7,31-.54.39,1.65.14,121.12,9.82a14.75,14.75,0,0,1-1.18,29.45C941.72,984.88,941.32,984.86,940.91,984.83Z" fill="#d6802b"/><path d="M846.5,955.91s32.84,51.61-7.4,110.93" fill="none" stroke="#000" stroke-miterlimit="10" stroke-width="2.31"/><path d="M752.62,969.2s46.24,20.63,73.09-12.14" fill="none" stroke="#000" stroke-miterlimit="10" stroke-width="2.31"/><polygon points="504.33 772.23 523.91 895.2 752.5 924.21 742.08 1083.27 383.82 1032.43 337.3 793.28 504.33 772.23" fill="#c84348"/><polygon points="558.23 900.28 748.56 1033.58 742.08 1083.27 572.65 1057.87 558.23 900.28" fill="#962b35"/><rect x="658.57" y="969.44" width="172.94" height="60.21" transform="translate(-316.27 1653.6) rotate(-84.94)" fill="#395da3"/><path d="M767.41,1088.33s-50.2-103.7-47.06-151.28l-13.26,147.51Z" fill="#EF985D"/><rect x="605.87" y="150.91" width="966.65" height="1783.6" rx="121.9" fill="#EF985D"/><polygon points="367.75 1821.93 314.27 1924.36 353.09 1939.26 386.83 1898.85 384.35 1959.37 570.91 1939.65 457.13 1906.23 457.44 1836.37 367.75 1821.93" fill="#d6802b"/><polygon points="349.83 1856.71 458.71 1861.49 457.13 1906.23 339.61 1876.67 349.83 1856.71" fill="#a85d23"/><path d="M822.18,945.61l-1.65-.14.54-.39C821.45,945.25,821.81,945.42,822.18,945.61Z" fill="#d6802b"/><circle cx="463.63" cy="564.47" r="47.26" fill="#d6802b"/><circle cx="409.91" cy="562.9" r="16.03" fill="#d6802b"/><polygon points="533.67 634.98 383.65 629.07 275.44 1012.38 572.65 1057.87 533.67 634.98" fill="#c84348"/><path d="M382.85,629.05l144.58,5.48-125.37,4.39S385.32,631.79,382.85,629.05Z" fill="#962b35"/><path d="M345,769c-1.1,6.72,54.69,242.78,226.29,289.7L273.77,1013Z" fill="#962b35"/><polygon points="277.8 1008.55 310.4 1859.08 475.7 1861.44 470.58 1045.77 277.8 1008.55" fill="#030303"/><polygon points="381.43 1886.89 515.33 1944.65 431.38 1954.52 381.43 1886.89" fill="#a85d23"/><path d="M508.9,572a25.84,25.84,0,0,0-18.69,8,25.92,25.92,0,0,0-23.6-1.36,26,26,0,0,0-4.77-4.89,25.93,25.93,0,0,0-.35-33,25.81,25.81,0,0,0,9.83-7.16,40.73,40.73,0,1,0-9.19-40.47,25.18,25.18,0,0,0-7.13-2l-.08,0a24.55,24.55,0,0,0-3.34-.22,25.93,25.93,0,0,0-24.86,18.54c-.4,0-.8-.06-1.21-.06H425A16.15,16.15,0,0,0,409.4,522a16.16,16.16,0,0,0,6.78,30.75,25.37,25.37,0,0,0-.44,4.73,25.68,25.68,0,0,0,3,12,16.16,16.16,0,0,0,1.18,24.92,25.9,25.9,0,0,0,36.39,23.42,25.89,25.89,0,0,0,20.8,10.45,26.65,26.65,0,0,0,3-.17,25.93,25.93,0,0,0,48.75,3.47v0A25.46,25.46,0,0,0,531,621.17a25.72,25.72,0,0,0-1.21-7.84A25.93,25.93,0,0,0,508.9,572Zm-77.15-38.53a2.9,2.9,0,0,1,.41-.16c0,.26.1.53.13.79C432.11,533.9,431.92,533.69,431.75,533.48Z" fill="#395da3"/><path d="M432.29,534.11c-.18-.21-.37-.42-.54-.63a2.9,2.9,0,0,1,.41-.16C432.21,533.58,432.26,533.85,432.29,534.11Z" fill="#395da3"/><path d="M432.16,533.32c0,.26.1.53.13.79-.18-.21-.37-.42-.54-.63A2.9,2.9,0,0,1,432.16,533.32Z" fill="#395da3"/><path d="M432.29,534.11c-.18-.21-.37-.42-.54-.63a2.9,2.9,0,0,1,.41-.16C432.21,533.58,432.26,533.85,432.29,534.11Z" fill="#395da3"/><path d="M432.29,534.11c-.18-.21-.37-.42-.54-.63a2.9,2.9,0,0,1,.41-.16C432.21,533.58,432.26,533.85,432.29,534.11Z" fill="#395da3"/><path d="M404.63,547.35s2.61,4.73,11.69,5.35c0,0-2.64,6,2.3,16.67,0,0-4.73,5.14-4.73,9.25,0,0-6.17,1-9.26-.82C404.63,577.8,416,563.6,404.63,547.35Z" fill="#a85d23"/><path d="M529.27,629.68a15.32,15.32,0,0,1-.45,1.83v0a25.93,25.93,0,0,1-48.75-3.47,26.65,26.65,0,0,1-3,.17,25.89,25.89,0,0,1-20.8-10.45,25.9,25.9,0,0,1-36.39-23.42,16.16,16.16,0,0,1-1.18-24.92,25.68,25.68,0,0,1-3-12,25.37,25.37,0,0,1,.44-4.73A16.16,16.16,0,0,1,409.4,522,16.15,16.15,0,0,1,425,509.32l.48.05,0,0c.35-1.08,7.68-22.65,29.41-18.26l.08,0a38.71,38.71,0,0,1,6.47,2s-23.5.84-26.41,20.93c0,0-15.39-2.72-18.3,11.5,0,0-12.69,3.14-1.67,20.51,0,0,21.22,4.81,15.39,18.41s-6.86,21.34-1.66,25.11c0,0,8.32,26.78,25.58,18.62,0,0,22,18.62,27.45,8.79C481.85,616.92,511.59,644.12,529.27,629.68Z" fill="#EF985D"/><path d="M470.47,520.19s21,29.63,50.83,20.58c0,0-22.64,17.07-50.21-7C471.09,533.77,468,528.63,470.47,520.19Z" fill="#EF985D"/><polygon points="207.51 469.24 206.53 469.56 206.26 468.72 207.51 469.24" fill="#d6802b"/><polygon points="435.65 662.52 321.36 670.72 227.48 445.68 118.42 510.81 227.75 825 451.77 816.59 435.65 662.52" fill="#c84348"/><path d="M252.26,366l-4.29-1.8a11.23,11.23,0,0,0-14.72,6l-17.08,40.61-33.23-103.5a13.57,13.57,0,0,0-25.84,8.3l25,77.92a59.85,59.85,0,0,0-6.24-1.39l-25.1-78.18a13.57,13.57,0,0,0-25.84,8.3l23,71.53c-1.13.32-2.26.69-3.39,1.09-.46.16-.91.33-1.36.51l-21.6-67.27a13.57,13.57,0,0,0-25.84,8.3l24,74.74q-2.14,2.31-4,4.8L94.1,348.77a13.57,13.57,0,1,0-25.85,8.3l49.43,154,1.6-.51L134,552l117.8-41.84-22-61.84,28.44-67.62A11.24,11.24,0,0,0,252.26,366Zm-45.73,103.6-.27-.84,1.25.52Z" fill="#d6802b"/><polygon points="207.51 469.24 206.53 469.56 206.26 468.72 207.51 469.24" fill="#d6802b"/><polygon points="321.36 670.72 299.06 689.6 315.32 656.3 321.36 670.72" fill="#962b35"/><path d="M202.69,414.71s-39.22,7.94-26.77,73" fill="none" stroke="#030303" stroke-miterlimit="10" stroke-width="2.03"/><path d="M201,395.47s-67-10.19-92.73,35.36" fill="none" stroke="#030303" stroke-miterlimit="10" stroke-width="2.03"/><rect x="113.88" y="473.32" width="146.55" height="60.21" transform="translate(540.54 907.87) rotate(159.25)" fill="#395da3"/><polygon points="254.9 510.34 133.06 555.24 147.44 594.1 263.28 531.54 254.9 510.34" fill="#962b35"/><path d="M245,449.31s-71.5,90.33-115.7,108.23l138.57-52.28Z" fill="#EF985D"/><path d="M541.71,363.65,449,424.18l6.44-52.8L474.74,383S472.16,341.75,476,343s29.62,25.76,29.62,25.76l11.59-27.05S540.42,364.94,541.71,363.65Z" fill="#d6802b"/><polygon points="564.66 258.59 408.14 156.41 436.4 278.16 564.66 258.59" fill="#d6802b"/><circle cx="250.86" cy="234.04" r="40.91" fill="#c84348"/><polygon points="231.02 879.6 181.83 1082.77 130.5 1057.11 183.97 886.02 231.02 879.6" fill="#d6802b"/><polygon points="226.74 1427.8 243.85 1951.76 173.28 1953.9 126.23 1476.99 226.74 1427.8" fill="#395da3"/><path d="M313,495.43,419.28,451l-37.14-50.77s-74.29,37.49-74.19,43.9S313,495.43,313,495.43Z" fill="#c84348"/><polygon points="226.74 1215.37 147.61 1380.04 145.47 1168.32 226.74 1215.37" fill="#395da3"/><rect x="649.86" y="232.08" width="878.67" height="1621.27" rx="110.81" fill="#c84348"/><polygon points="432.78 1758.33 336.73 1822.55 363.64 1854.24 412.63 1834.97 381.43 1886.89 554.58 1959.07 470.78 1875.16 504.55 1814.02 432.78 1758.33" fill="#d6802b"/><polygon points="399.5 1779.96 493.62 1836.66 470.78 1875.16 380.01 1793.27 399.5 1779.96" fill="#a85d23"/><path d="M293.11,1016.27l267.27,429.66L339.2,1732.31l163,126.74s263.37-373.65,268.31-365.42-197.82-435.76-197.82-435.76Z" fill="#030303"/><polyline points="400.27 1780.94 339.2 1732.31 472.53 1561.12" fill="none" stroke="#fff" stroke-miterlimit="10" stroke-width="2.31"/><line x1="332.62" y1="1085.4" x2="553.19" y2="1434.37" fill="none" stroke="#fff" stroke-miterlimit="10" stroke-width="2.31"/><path d="M1463.66,478.83H929a32.38,32.38,0,0,0-7.55.9,156.85,156.85,0,1,0-5.7,161.62A31.87,31.87,0,0,0,929,644.22h534.65a32.08,32.08,0,0,0,32.08-32.08V510.91A32.08,32.08,0,0,0,1463.66,478.83Z" fill="#fff"/><rect x="943.98" y="523.03" width="510.42" height="17.11" fill="#EF985D"/><rect x="943.98" y="557.25" width="416.32" height="15.68" fill="#EF985D"/><rect x="943.98" y="588.61" width="479.05" height="17.11" fill="#EF985D"/><path d="M1403,705.51a156.78,156.78,0,0,0-137.16,80.75,31.85,31.85,0,0,0-7.55-.9H723.65a32.08,32.08,0,0,0-32.08,32.08V918.66a32.08,32.08,0,0,0,32.08,32.08h534.66a32,32,0,0,0,13.24-2.86A156.84,156.84,0,1,0,1403,705.51Z" fill="#fff"/><circle cx="1394.23" cy="902" r="47.26" fill="#d6802b"/><circle cx="1447.96" cy="900.44" r="16.03" fill="#d6802b"/><circle cx="1356.94" cy="843.11" r="40.74" fill="#395da3"/><path d="M1453.24,884.88s-2.61,4.73-11.7,5.35c0,0,2.64,6-2.3,16.67,0,0,4.74,5.14,4.74,9.26,0,0,6.17,1,9.26-.83C1453.24,915.33,1441.92,901.14,1453.24,884.88Z" fill="#a85d23"/><path d="M1387.39,857.72s-21,29.63-50.82,20.58c0,0,22.63,17.08,50.21-7C1386.78,871.3,1389.86,866.16,1387.39,857.72Z" fill="#EF985D"/><path d="M1453.94,860.06a46,46,0,0,1-4.86-.26l-.61-.31a16.08,16.08,0,0,0-6.93-1.56c-.39,0-.77,0-1.15,0a44,44,0,0,0,8.14,1.77l.55.06a16.15,16.15,0,0,1-2.25,29.54,16.16,16.16,0,1,1-20.95-11.3c0-.15-.07-.3-.1-.44a16,16,0,0,1-3.89-2.59,25.93,25.93,0,1,1-15.6-46.63,25.29,25.29,0,0,1,4.87.47,44.92,44.92,0,1,1,42.78,31.21Z" fill="#395da3"/><rect x="741.22" y="827.11" width="510.42" height="17.11" transform="translate(1992.85 1671.33) rotate(-180)" fill="#EF985D"/><rect x="835.32" y="861.33" width="416.32" height="15.68" transform="translate(2086.95 1738.34) rotate(-180)" fill="#EF985D"/><rect x="772.58" y="892.69" width="479.05" height="17.11" transform="translate(2024.22 1802.5) rotate(-180)" fill="#EF985D"/><path d="M810.79,1600.59l-1.65-.14.54-.39C810.06,1600.23,810.42,1600.4,810.79,1600.59Z" fill="#d6802b"/><path d="M1343.62,1116.7h-425a28.66,28.66,0,0,0-4.57.37,156.84,156.84,0,1,0-6,163,28.64,28.64,0,0,0,10.54,2h425a28.8,28.8,0,0,0,28.8-28.8V1145.5A28.81,28.81,0,0,0,1343.62,1116.7Z" fill="#fff"/><rect x="927.73" y="1160.9" width="411.36" height="17.11" fill="#EF985D"/><rect x="927.73" y="1195.12" width="335.52" height="15.68" fill="#EF985D"/><rect x="927.73" y="1226.49" width="386.08" height="17.11" fill="#EF985D"/><path d="M1391.62,1360.5a156.78,156.78,0,0,0-137,80.38,30.52,30.52,0,0,0-5.7-.54H784.38a30,30,0,0,0-30,30V1575.7a30,30,0,0,0,30,30H1249a29.81,29.81,0,0,0,11.56-2.31,156.84,156.84,0,1,0,131.1-242.91Z" fill="#fff"/><circle cx="1382.84" cy="1556.98" r="47.26" fill="#d6802b"/><circle cx="1436.56" cy="1555.42" r="16.03" fill="#d6802b"/><circle cx="1345.54" cy="1498.09" r="40.74" fill="#395da3"/><path d="M1441.84,1539.86s-2.61,4.73-11.69,5.35c0,0,2.64,6-2.3,16.67,0,0,4.73,5.14,4.73,9.26,0,0,6.17,1,9.26-.83C1441.84,1570.31,1430.52,1556.12,1441.84,1539.86Z" fill="#a85d23"/><path d="M1376,1512.7s-21,29.63-50.83,20.58c0,0,22.64,17.08,50.21-7C1375.38,1526.28,1378.47,1521.14,1376,1512.7Z" fill="#EF985D"/><path d="M1442.55,1515a46,46,0,0,1-4.86-.26l-.61-.31a16.08,16.08,0,0,0-6.93-1.56c-.39,0-.77,0-1.15,0a44,44,0,0,0,8.14,1.77l.55.06a16.15,16.15,0,0,1-2.25,29.54,16.16,16.16,0,1,1-21-11.3c0-.15-.07-.3-.1-.44a16,16,0,0,1-3.89-2.59,25.93,25.93,0,1,1-15.6-46.63,25.29,25.29,0,0,1,4.87.47,44.92,44.92,0,1,1,42.78,31.21Z" fill="#395da3"/><rect x="797.85" y="1482.09" width="447.19" height="17.11" transform="translate(2042.89 2981.29) rotate(-180)" fill="#EF985D"/><rect x="880.29" y="1516.31" width="364.75" height="15.68" transform="translate(2125.33 3048.3) rotate(-180)" fill="#EF985D"/><rect x="825.33" y="1547.67" width="419.71" height="17.11" transform="translate(2070.37 3112.45) rotate(-180)" fill="#EF985D"/><rect x="772.68" y="202.24" width="633.03" height="105.5" rx="52.75" fill="#EF985D"/><rect x="836.81" y="228.75" width="427.72" height="25.66" rx="12.83" fill="#fff"/><circle cx="1312.7" cy="243.01" r="14.97" fill="#fff"/><circle cx="1071.58" cy="1789.08" r="27.8" fill="#fff"/><rect x="909.76" y="1763.43" width="51.33" height="51.33" fill="#fff"/><polygon points="1215.81 1762.05 1185.42 1762.05 1170.22 1788.38 1185.42 1814.7 1215.81 1814.7 1231.01 1788.38 1215.81 1762.05" fill="#fff"/><circle cx="778.8" cy="544.63" r="102.97" fill="#395da3"/><path d="M710.21,468.39S699.87,601,822.13,638.41c0,0-32.79,17.46-70.58,5,0,0-77.34-17.83-75.2-105.15C676.35,538.25,675.28,497.61,710.21,468.39Z" fill="#EF985D"/><path d="M795.38,624.72A16,16,0,1,1,780.45,600a16.79,16.79,0,0,1,2.65,0,16,16,0,0,1,12.28,24.77Z" fill="#d6802b"/><path d="M795.38,624.72a16,16,0,0,1-18.72,6.36c1.94-5.72,7.63-23.5,6.44-31.13a15.89,15.89,0,0,1,7.62,2.57Z" fill="#a85d23"/><circle cx="835.6" cy="612.46" r="47.26" fill="#d6802b"/><circle cx="771.69" cy="1182.5" r="102.97" fill="#395da3"/><path d="M703.09,1106.26s-10.34,132.59,111.92,170c0,0-32.79,17.46-70.57,5,0,0-77.35-17.82-75.21-105.15C669.23,1176.12,668.16,1135.49,703.09,1106.26Z" fill="#EF985D"/><path d="M788.26,1262.59a16,16,0,1,1-14.92-24.74,16.66,16.66,0,0,1,2.64,0,16,16,0,0,1,12.28,24.77Z" fill="#d6802b"/><path d="M788.26,1262.59a16,16,0,0,1-18.71,6.36c1.93-5.72,7.63-23.5,6.43-31.13a15.92,15.92,0,0,1,7.63,2.57Z" fill="#a85d23"/><circle cx="828.48" cy="1250.33" r="47.26" fill="#d6802b"/></svg>