<svg xmlns="http://www.w3.org/2000/svg" xmlns:xlink="http://www.w3.org/1999/xlink" width="1834" height="1675" viewBox="0 0 1834 1675" fill="none"><defs><rect id="path_0" x="0" y="0" width="1834" height="1675" /><rect id="path_1" x="0" y="0" width="2201" height="1909" /><rect id="path_2" x="0" y="0" width="1247.013133242383" height="1515.35" /></defs><g opacity="1" transform="translate(0 0)  rotate(0 917 837.5)"><mask id="bg-mask-0" fill="white"><use xlink:href="#path_0"></use></mask><g mask="url(#bg-mask-0)" ><g opacity="1" transform="translate(-94 -80)  rotate(0 1100.5 954.5)"><g opacity="1" transform="translate(0 0)  rotate(0 1100.5 954.5)"><mask id="bg-mask-1" fill="white"><use xlink:href="#path_1"></use></mask><g mask="url(#bg-mask-1)" ><path id="路径 1" fill-rule="evenodd" style="fill:#C84348" transform="translate(142.64123579859157 247.41453119405165)  rotate(0 844.5110196402428 719.6979569718721)" opacity="1" d="M1106.65,1438.87C1197.62,1423.47 1183.83,1118.54 1228.58,904.09C1244.87,825.83 1216.55,775.43 1259.54,707.09C1399.67,484.62 1721.31,329.49 1686.39,176.89C1657.48,50.52 1304,-28.13 1099.75,9.41C918.68,42.75 912.08,285.45 722.94,354.05C474.08,444.28 53.39,304.54 4.83,406.23C-42.72,505.88 271.59,699.83 482.59,857.13C580.02,929.8 689.92,901.04 775.62,980.96C939.52,1133.68 1016.41,1454.14 1106.65,1438.87Z " /></g></g><g opacity="1" transform="translate(420.3819918144611 158)  rotate(0 623.5065666211915 757.675)"><mask id="bg-mask-2" fill="white"><use xlink:href="#path_2"></use></mask><g mask="url(#bg-mask-2)" ><path id="路径 1" fill-rule="evenodd" style="fill:#D6802B" transform="translate(685.0391004895048 257.610680308529)  rotate(0 52.146835574411746 43.57944029376611)" opacity="1" d="M70.53,1.12C49.34,-3.76 27.8,7.73 20.06,28.03C18.78,27.53 17.43,27.22 16.06,27.1C10.13,26.58 4.48,29.66 1.7,34.92C-1.07,40.18 -0.42,46.58 3.36,51.17C7.13,55.76 13.29,57.65 18.99,55.95C24.9,76.02 44.28,89.03 65.11,86.94C85.94,84.84 102.33,68.23 104.12,47.39C106.06,25.75 91.72,6 70.53,1.12Z " /><path id="路径 2" fill-rule="evenodd" style="fill:#D6802B" transform="translate(784.5428967712598 1283.34)  rotate(0 130.75881764438373 93.15000000000009)" opacity="1" d="M261.52 186.3L56.85 176.08L0 86.34L112.57 0L153.5 69.3L125.07 127.23L261.52 186.3Z" /><path id="路径 3" fill-rule="evenodd" style="fill:#030303" transform="translate(784.5428967712598 1352.64)  rotate(0 130.75881764438373 58.5)" opacity="1" d="M56.85 106.78L0 17.04L21.61 0L77.32 95.42L261.52 117L56.85 106.78Z" /><path id="路径 4" fill-rule="evenodd" style="fill:#A85D23" transform="translate(848.2207594361073 1290.16)  rotate(0 44.91080945884493 49.414999999999964)" opacity="1" d="M89.82 62.48L71.64 98.83L0 31.8L37.52 0L89.82 62.48Z" /><path id="路径 5" fill-rule="evenodd" style="fill:#D6802B" transform="translate(31.698804001818985 343.73)  rotate(0 128.6569076853115 82.54999999999997)" opacity="1" d="M0 135.13L153.95 0L257.31 24.81L243.88 116.51L239.81 144.34L236.77 165.1L170.62 147.03L159.08 143.88L147.49 108.33L139.08 82.53L0 135.13Z" /><path id="路径 6" fill-rule="evenodd" style="fill:#030303" transform="translate(31.698804001818985 343.73)  rotate(0 128.6569076853115 67.565)" opacity="1" d="M153.95 0L257.31 24.81L253.7 52.07L147.19 22.4L0 135.13L153.95 0Z" /><path id="路径 7" fill-rule="evenodd" style="fill:#A85D23" transform="translate(179.19282855843562 452.05999999999995)  rotate(0 48.193792633015 19.349999999999994)" opacity="1" d="M23.12 38.7L11.59 35.55L0 0L96.39 8.18L92.31 36.01L23.12 38.7Z" /><path id="路径 8" fill-rule="evenodd" style="fill:#030303" transform="translate(177.01668627752485 480.9567649458927)  rotate(0 314.76810524686744 237.0259427200868)" opacity="1" d="M129.64,139.7C129.64,139.7 110.31,2.62 103,0.34C95.68,-1.94 15.02,7.92 6,6.99C-3.02,6.06 -30.83,497.96 198.32,473.14C455.03,445.33 629.54,287.14 629.54,287.14L559.27,154.71C559.27,154.71 191.32,390.46 129.64,139.7Z " /><path id="路径 9" fill-rule="evenodd" style="fill:#D6802B" transform="translate(338.94772332134085 648.2299999999998)  rotate(0 92.83872387194738 123.7231321489632)" opacity="1" d="M12.58 218.67C5.46 218.14 -0.03 212.21 0 205.08C0 204.41 0.04 203.74 0.14 203.08L12.03 121.64L16.77 89.26L23.51 43.06L25.18 43.3L32.87 0L153.88 26.15L144.35 86.07L183.83 148.46C185.5 151 186.07 154.11 185.41 157.07C184.75 160.04 182.92 162.61 180.33 164.21L176.39 166.7C173.87 168.29 170.81 168.82 167.9 168.16C164.99 167.51 162.46 165.72 160.87 163.2L137.3 125.97L121.59 233.54C120.57 240.58 114.28 245.64 107.17 245.13C100.06 244.62 94.56 238.71 94.57 231.59C94.56 230.92 94.61 230.25 94.71 229.59L106.54 148.59C104.62 149.48 102.65 150.27 100.64 150.98L88.25 235.82C87.23 242.86 80.94 247.92 73.83 247.41C66.73 246.9 61.23 241 61.23 233.88C61.22 233.21 61.27 232.54 61.37 231.88L72.75 153.98C71.57 153.84 70.37 153.66 69.18 153.45C68.63 153.35 68.09 153.25 67.55 153.13L57.46 222.22C56.44 229.27 50.13 234.34 43.02 233.81C35.9 233.28 30.41 227.35 30.44 220.22C30.43 219.55 30.48 218.88 30.58 218.22L41.82 141.22C40.22 139.99 38.68 138.68 37.21 137.29L27.02 207.08C26 214.13 19.69 219.2 12.58 218.67Z" /><path id="路径 10" fill-rule="evenodd" style="fill:#030303" transform="translate(608.332778535698 626.27)  rotate(0 265.44014719142 367.5984897486286)" opacity="1" d="M322.14,550.54C322.14,550.54 249.56,670.93 253.76,677.46C257.96,683.99 326.52,728.46 332.89,735.1C339.27,741.74 647.81,405.73 481.97,243.73C287.27,53.44 52,0 52,0L0,260.26C0,260.26 434.57,313.26 322.14,550.54Z " /><path id="路径 11" fill-rule="evenodd" style="fill:#D6802B" transform="translate(64.2183537971805 512.48)  rotate(0 43.52955434288313 43.49)" opacity="1" d="M43.53,0C19.49,0 0,19.47 0,43.49C0,67.51 19.49,86.98 43.53,86.98C67.57,86.98 87.06,67.51 87.06,43.49C87.06,19.47 67.57,0 43.53,0Z " /><path id="路径 12" fill-rule="evenodd" style="fill:#395DA3" transform="translate(680.5671511227206 195.57990940534353)  rotate(0 55.81402705504366 45.85483776970879)" opacity="1" d="M96.18,34.45C85.92,29.23 73.51,30.75 64.81,38.3C64.98,37.35 65.11,36.42 65.19,35.42C66.13,24.59 61.61,14 53.12,7.19C44.64,0.38 33.32,-1.76 22.93,1.49C20.88,2.12 18.89,2.96 17.01,4L16.94,4C10.68,7.43 5.72,12.82 2.81,19.33C2.73,19.5 2.66,19.68 2.59,19.86C1.24,23.02 0.41,26.37 0.12,29.79C-1.12,44.17 7.25,57.66 20.7,62.94C20.66,63.09 20.6,63.23 20.6,63.38L20.54,63.63C20.5,63.79 20.44,64.06 20.44,64.12C20.44,64.18 20.44,64.18 20.44,64.18C20.28,64.95 20.17,65.73 20.11,66.52C19.04,78.88 27.89,89.89 40.2,91.52L40.26,91.52L41.26,91.62C44.81,91.93 48.38,91.42 51.7,90.12L51.92,90.03C56.54,88.17 60.43,84.89 63.04,80.65C63.22,80.37 63.38,80.09 63.54,79.8C71.36,87.45 82.9,89.91 93.17,86.1C103.43,82.3 110.58,72.93 111.52,62.03L111.52,62.06C112.51,50.59 106.45,39.67 96.18,34.45Z " /><path id="路径 13" fill-rule="evenodd" style="fill:#D6802B" transform="translate(537.6485493406094 354.1399999999999)  rotate(0 134.56727830832196 204.03500000000003)" opacity="1" d="M129.8 0.02L156.57 3.39L244.45 14.46L251.89 15.4L254.88 15.78L266.82 17.28L267.73 171.99L269.13 407.59L269.13 408.07L0 342.87L127.25 6.3L129.14 1.31L129.63 0L129.8 0.02Z" /><path id="路径 14" fill-rule="evenodd" style="fill:#D6802B" transform="translate(360.16727603456116 354.3800000000001)  rotate(0 154.26517735334247 189.40500000000003)" opacity="1" d="M21.82 88.1L307.12 0L308.53 16.98L281.3 147.01L161.56 172.87L131.03 330.47L121.67 378.81L1.77 349.7L0 349.27L2.46 319.8L4.69 293.06L21.82 88.1Z" /><path id="路径 15" fill-rule="evenodd" style="fill:#C84348" transform="translate(552.4419918144611 1096.42)  rotate(0 71.80524783992723 71.74)" opacity="1" d="M71.81,0C32.15,0 0,32.12 0,71.74C0,111.36 32.15,143.48 71.81,143.48C111.46,143.48 143.61,111.36 143.61,71.74C143.61,32.12 111.46,0 71.81,0Z " /><path id="路径 16" fill-rule="evenodd" style="fill:#C84348" transform="translate(581.6084947703501 37.77000000000001)  rotate(0 62.606889495225055 70.235)" opacity="1" d="M125.21 69.13L0 140.47L11.94 0L125.21 69.13Z" /><path id="路径 17" fill-rule="evenodd" style="fill:#D6802B" transform="translate(997.246175534334 629.12)  rotate(0 78.33618235561612 60.87)" opacity="1" d="M156.67 102.18L28.3 121.74L0 0L156.67 102.18Z" /><path id="路径 18" fill-rule="evenodd" style="fill:#D6802B" transform="translate(852.1543337880858 227.25)  rotate(0 40.25658026375628 25.004999999999995)" opacity="1" d="M80.51 50.01L0 26.09L52.23 0L80.51 50.01Z" /><path id="路径 19" fill-rule="evenodd" style="fill:#D6802B" transform="translate(536.487494315598 949.2900000000002)  rotate(0 78.31115961800819 69.56999999999994)" opacity="1" d="M95.75 45.65L115.33 0C115.33 0 153.55 38.23 156.53 37.02L0 139.14L10.88 50L43.52 69.57C43.52 69.57 39.18 0 45.7 2.17C52.23 4.34 95.75 45.65 95.75 45.65ZM156.53 37.02L156.62 36.96C156.6 36.99 156.57 37 156.53 37.02Z" /><path id="路径 20" fill-rule="evenodd" style="fill:#C84348" transform="translate(891.8804320145523 563.64)  rotate(0 40.947207821737145 40.91)" opacity="1" d="M40.95,0C18.33,0 0,18.32 0,40.91C0,63.5 18.33,81.82 40.95,81.82C63.56,81.82 81.89,63.5 81.89,40.91C81.89,18.32 63.56,0 40.95,0Z " /><path id="路径 21" fill-rule="evenodd" style="fill:#395DA3" transform="translate(710.8859663483402 997.0800000000002)  rotate(0 101.25200545702589 125.67500000000001)" opacity="1" d="M91.12 108.94L0 91.05L12.46 0L202.5 99.61L95.8 251.35L24.92 201.55L91.12 108.94Z" /><path id="路径 22" fill-rule="evenodd" style="fill:#D6802B" transform="translate(788.336343792633 154.58000000000004)  rotate(0 166.82659163256028 189.65999999999997)" opacity="1" d="M248.35 310.09L224.23 379.32L18.59 371.61L17.05 371.55L0 370.91L16.13 216.84L24.64 217.45L130.53 225.05L188.97 85.08L197.5 64.64L197.58 64.47L198.66 61.87L214.92 22.95L214.96 22.84L217.58 16.55L220.79 8.88L224.49 0L271.58 28.1L271.62 28.11L333.65 65.13L333.64 65.15L318.75 107.91L318.11 109.76L318.01 110.06L318 110.07L304.4 149.15L248.35 310.09Z" /><path id="路径 23" fill-rule="evenodd" style="fill:#D6802B" transform="translate(1032.818499317872 177.62)  rotate(0 0.625568440200091 0.4200000000000017)" opacity="1" d="M0.98 0.84L0 0.53L1.25 0L0.98 0.84Z" /><path id="路径 24" fill-rule="evenodd" style="fill:#D6802B" transform="translate(981.1314391523526 6.7372092853347)  rotate(0 95.86215445747524 127.03139535733261)" opacity="1" d="M191.67 55.09L191.72 55.08C191.72 56.49 191.5 57.89 191.07 59.23L145.47 201.13L141.6 213.13L140.86 212.89L140.01 212.62L125.27 254.06L111.21 249.06L7.36 212.31L22.16 170.68L24.51 164.07L26.78 157.68L27.23 156.43L29.35 150.48L0.88 82.85C-0.28 80.11 -0.29 77.01 0.83 74.25C1.96 71.49 4.14 69.29 6.89 68.13L11.18 66.32C13.93 65.17 17.03 65.15 19.79 66.27C22.55 67.4 24.76 69.58 25.91 72.32L43.01 112.93L76.27 9.42C78.56 2.29 86.22 -1.64 93.35 0.65C100.49 2.94 104.43 10.59 102.13 17.72L77.11 95.66C79.17 95.09 81.26 94.62 83.37 94.26L108.48 16.08C110.77 8.95 118.42 5.02 125.56 7.3C132.7 9.59 136.64 17.24 134.35 24.37L111.33 95.9C112.46 96.22 113.59 96.59 114.71 96.99C115.17 97.15 115.64 97.32 116.09 97.5L137.73 30.26C140.02 23.13 147.67 19.2 154.81 21.48C161.95 23.77 165.89 31.42 163.6 38.55L139.58 113.3C140.99 114.83 142.33 116.44 143.58 118.1L165.15 50.95C167.18 44.57 173.57 40.63 180.19 41.66C186.81 42.7 191.69 48.4 191.67 55.09Z" /><path id="路径 25" fill-rule="evenodd" style="fill:#D6802B" transform="translate(300.8033333333334 160.25)  rotate(0 115.29977035015915 71.61000000000001)" opacity="1" d="M230.6 143.22L0 74.72L149.58 0L230.6 143.22Z" /><path id="路径 26" fill-rule="evenodd" style="fill:#A85D23" transform="translate(918.8649522510232 364.65)  rotate(0 11.160140973169657 16.92500000000001)" opacity="1" d="M0 14.98L5.97 0L22.32 33.85L0 14.98Z" /><path id="路径 27 (轮廓)"  style="fill:#030303" transform="translate(1037.4417311286948 122.61513200000002)  rotate(0 15.22780702435905 37.093033999999996)" opacity="1" d="M25.99 73.8L27.99 74.19C29.49 66.34 30.31 59.01 30.44 52.2C30.55 45.99 30.1 40.24 29.07 34.95C28.14 30.19 26.76 25.84 24.92 21.88C24.08 20.08 23.16 18.37 22.14 16.74C21.19 15.24 20.16 13.81 19.06 12.46C18.05 11.21 16.97 10.04 15.83 8.94C14.8 7.94 13.72 7.01 12.59 6.13C11.58 5.35 10.54 4.63 9.47 3.96C8.53 3.37 7.57 2.84 6.6 2.35C5.78 1.93 4.95 1.55 4.13 1.22C3.46 0.95 2.82 0.71 2.18 0.5C1.72 0.35 1.29 0.22 0.89 0.12C0.69 0.06 0.52 0.02 0.4 0L0 1.99C0.02 1.99 0.05 2 0.09 2.01C0.18 2.03 0.27 2.05 0.38 2.08C0.74 2.18 1.13 2.29 1.55 2.43C2.14 2.62 2.74 2.84 3.36 3.1C4.13 3.41 4.91 3.77 5.68 4.16C6.6 4.62 7.5 5.13 8.39 5.68C9.41 6.32 10.39 7 11.35 7.74C12.42 8.57 13.44 9.45 14.42 10.4C15.5 11.45 16.53 12.56 17.49 13.74C19.67 16.41 21.54 19.41 23.08 22.73C24.85 26.54 26.18 30.74 27.07 35.34C28.08 40.49 28.52 46.09 28.41 52.16C28.28 58.85 27.48 66.07 25.99 73.8Z " /><path id="路径 28 (轮廓)"  style="fill:#030303" transform="translate(1039.1519109058663 102.3776333988659)  rotate(0 46.923041000000005 18.92409314088873)" opacity="1" d="M16.49 2.03C18.56 2.03 20.63 2.09 22.68 2.18C27.51 2.4 32.2 2.87 36.74 3.59C42.11 4.43 47.18 5.61 51.98 7.11C57.45 8.83 62.49 10.96 67.11 13.5C72.26 16.33 76.85 19.66 80.88 23.49C85.31 27.69 89.04 32.48 92.08 37.85L93.85 36.85C90.71 31.3 86.86 26.36 82.28 22.02C78.12 18.07 73.39 14.64 68.09 11.72C63.35 9.11 58.18 6.93 52.58 5.18C47.7 3.64 42.52 2.44 37.06 1.58C32.44 0.86 27.68 0.38 22.78 0.15C20.69 0.06 18.6 0.01 16.49 0C14.65 0 12.82 0.03 11 0.09C9.45 0.15 7.93 0.23 6.44 0.34C5.24 0.42 4.09 0.52 2.98 0.63C2.19 0.71 1.46 0.79 0.78 0.88C0.44 0.92 0.18 0.96 0 0.99L0.3 2.99C0.47 2.97 0.72 2.93 1.04 2.89C1.69 2.81 2.41 2.73 3.19 2.65C4.27 2.54 5.41 2.44 6.58 2.36C8.05 2.26 9.55 2.18 11.07 2.12C12.87 2.06 14.68 2.03 16.49 2.03Z " /><path id="路径 29" fill-rule="evenodd" style="fill:#395DA3" transform="translate(538.719522510232 353.3300000000001)  rotate(0 137.0995793542519 204.32999999999998)" opacity="1" d="M125.66 2.18L126.67 0L155.69 3.67L155.52 4.25C153.2 12.29 128.49 102.22 177.11 125.13L177.27 125.21C224.49 147.21 247.55 33.8 250.82 16.21L253.75 16.59L265.69 18.09L274.2 18.7L274.2 19.77L268.19 172.86L268.19 173.16L269.12 408.66L268.06 408.4L0 343.46L72.89 155.85C130.82 125.92 126.86 19.72 126.17 7.14C126.1 6.34 126.1 5.92 126.1 5.92L125.88 3.92L125.66 2.18Z" /><path id="路径 30" fill-rule="evenodd" style="fill:#2B4271" transform="translate(537.6585584356524 508.26)  rotate(0 134.56227376080037 127)" opacity="1" d="M0,188.74L269.12,254C110.33,206.72 69.99,6.07 71.52,0L0,188.74Z " /><path id="路径 31" fill-rule="evenodd" style="fill:#A85D23" transform="translate(711.1862391996362 368.6)  rotate(0 41.15239427012279 56.845)" opacity="1" d="M4.62 109.81C2.12 108.53 0 107.29 0 107.29C48.27 113.91 68.58 12.78 70.91 0L78.35 0.94L81.3 1.32L82.3 1.57C70.73 60.57 50.13 91.57 35.31 105.57C22.35 117.81 10.63 113.57 4.62 109.81Z" /><path id="路径 32" fill-rule="evenodd" style="fill:#A85D23" transform="translate(806.9332423829014 372)  rotate(0 117.73198044565711 81.005)" opacity="1" d="M0,154.48L207.44,162.01L235.46,74.91C146.46,107 6.05,0 6.05,0L0,154.48Z " /><path id="路径 33" fill-rule="evenodd" style="fill:#2B4271" transform="translate(680.5771602177638 197.06999999999994)  rotate(0 31.51426891340104 45.10979247238059)" opacity="1" d="M34.14,52.02C11.05,49.93 24.38,2.42 24.38,2.42L22.93,0C20.88,0.63 18.89,1.47 17.01,2.51L16.94,2.51C10.68,5.94 5.72,11.33 2.81,17.84C2.73,18.01 2.66,18.19 2.59,18.37C1.24,21.53 0.41,24.88 0.12,28.3C-1.12,42.68 7.25,56.17 20.7,61.45C20.66,61.6 20.6,61.74 20.6,61.89L20.54,62.14L20.8,62.25C20.67,62.39 20.55,62.54 20.43,62.69C20.27,63.46 20.16,64.24 20.1,65.03C19.03,77.39 27.88,88.4 40.19,90.03L40.25,90.03L41.25,90.13C44.8,90.44 48.37,89.93 51.69,88.63L51.91,88.54C56.53,86.68 60.42,83.4 63.03,79.16C27.52,83.55 34.14,52.02 34.14,52.02Z " /><path id="路径 34" fill-rule="evenodd" style="fill:#A85D23" transform="translate(977.3080582082766 215.06999999999994)  rotate(0 65.8498362892224 44.33000000000001)" opacity="1" d="M118.28 43.01L129.78 47.42L131.7 48.16L131.02 50.16L130.97 50.3L130.79 50.24L129.03 49.58L115.42 88.66L0 24.59L8.53 4.15L4.93 2.8L5 2.62L6.1 0L9.69 1.38L11.81 2.19L11.82 2.19L82.49 29.29L82.62 29.34L118.28 43.01Z" /><path id="路径 35" fill-rule="evenodd" style="fill:#A85D23" transform="translate(1007.2752887676218 157.22000000000003)  rotate(0 60.07458844929517 25.504999999999995)" opacity="1" d="M119.32 50.71L56.15 27.55L7.26 9.62L2.3 7.8L1.34 7.45L0.64 7.2L0 6.96L0.56 5.75L1.09 5.95L3.2 0L4.26 0.46L28.4 10.99L119.33 50.65L120.15 51.01L119.32 50.71Z" /><path id="路径 36" fill-rule="evenodd" style="fill:#A85D23" transform="translate(350.9789267849022 737.73)  rotate(0 67.16603228740335 16.19999999999999)" opacity="1" d="M4.73 0.02L4.73 0L134.33 0L131.71 0.63L28.47 25.54L11.71 29.58L0 32.4L4.73 0.02Z" /><path id="路径 37" fill-rule="evenodd" style="fill:#A85D23" transform="translate(362.62951341518874 647.44)  rotate(0 65.09915416098225 13.589999999999977)" opacity="1" d="M2.23 0L9.11 1.46L130.2 27.18L4.61 26.76L0 26.74L2.23 0Z" /><path id="路径 38" fill-rule="evenodd" style="fill:#A85D23" transform="translate(391.9161255115961 359.22)  rotate(0 136.58838294797854 157.70000000000005)" opacity="1" d="M100.94,315.4L129.67,168.92L217.75,154.08C280.28,128 272.91,0 272.91,0L74.01,146.78L0,314.21L100.94,315.4Z " /><path id="路径 39" fill-rule="evenodd" style="fill:#395DA3" transform="translate(973.9249840836744 158.22000000000003)  rotate(0 79.26702819463398 54.109999999999985)" opacity="1" d="M8.37 59.47L0 56.3L21.35 0L33.88 4.74L34.41 4.94L35.17 5.23L36.02 5.55L39.91 7.02L85.95 24.45L152.59 49.68L153.42 49.99L158.53 51.92L137.17 108.22L134.35 107.15L134.17 107.09L132.42 106.42L11.97 60.83L8.37 59.47Z" /><path id="路径 40" fill-rule="evenodd" style="fill:#2B4271" transform="translate(972.4036016371078 158.22000000000003)  rotate(0 69.33300136425646 54.09999999999998)" opacity="1" d="M22.89 0C23.12 0.3 26.94 5.11 33.23 12.58L33.5 12.9C51.35 34.09 88.47 76.05 119.92 97.68C121 98.42 122.07 99.15 123.15 99.84C126.64 102.14 130.27 104.23 134.01 106.1C134.64 106.42 135.27 106.72 135.89 106.99C136.82 107.43 137.76 107.83 138.67 108.2L135.87 107.16L135.69 107.1L133.93 106.44L13.43 61L9.84 59.65L0 55.94L22.89 0Z" /><path id="路径 41" fill-rule="evenodd" style="fill:#395DA3" transform="translate(338.5676489313324 674.12)  rotate(0 81.29887448840381 31.805)" opacity="1" d="M0,63.61L162.6,63.61L162.6,0L0,0L0,63.61Z " /><path id="路径 42" fill-rule="evenodd" style="fill:#2B4271" transform="translate(338.5676489313324 674.1199999999999)  rotate(0 81.29887448840381 31.805000000000007)" opacity="1" d="M0 63.61L0 0L162.6 0L162.6 0.15L0 63.61Z" /></g></g></g></g></g></svg>