<?xml version="1.0" encoding="utf-8"?>
<!-- Generator: Adobe Illustrator 23.1.0, SVG Export Plug-In . SVG Version: 6.00 Build 0)  -->
<svg version="1.1" id="Capa_1" xmlns="http://www.w3.org/2000/svg" xmlns:xlink="http://www.w3.org/1999/xlink" x="0px" y="0px"
	 viewBox="0 0 800 800" enable-background="new 0 0 800 800" xml:space="preserve">
<g>
	<path fill="#293E68" d="M450,277.5c-12.3-17.4-36.4-21.5-53.8-9.1c-17.4,12.3-21.5,36.4-9.1,53.8l55.7,84.2
		c12.3,17.4,36.4,21.5,53.8,9.1c17.4-12.3,21.5-36.4,9.1-53.8L450,277.5z"/>
	<g>
		<path fill="#FFB266" d="M567.1,405.9l69.3-13.7c3.3-0.7,5.5-3.9,4.8-7.3l-0.7-3.3c-0.7-3.3-3.9-5.5-7.3-4.8
			c3.3-0.7,5.5-3.9,4.8-7.3l-0.7-3.3c-0.7-3.3-3.9-5.5-7.3-4.8c3.3-0.7,5.5-3.9,4.8-7.3l-0.7-3.3c-0.7-3.3-3.9-5.5-7.3-4.8
			c3.3-0.7,5.5-3.9,4.8-7.3l-0.7-3.3c-0.7-3.3-3.9-5.5-7.3-4.8l-8.9,1.8c-2.1-8-10.1-13.1-18.3-11.4l-44.8,9L567.1,405.9z"/>
		<path fill="#293E68" d="M579.5,324.4l-110.6,22.2c-20.9,4.2-34.4,24.6-30.2,45.5c4.2,20.9,24.6,34.4,45.5,30.2l110.4-21.9
			L579.5,324.4z"/>
	</g>
	<path fill="#191919" d="M426.4,368.8c-17.3,10.1-23,32.3-12.9,49.6l69.1,117.7c10.1,17.3,32.3,23,49.6,12.9
		c17.3-10.1,23-32.3,12.9-49.6L476,381.7C465.8,364.4,443.6,358.7,426.4,368.8z"/>
	<g>
		<g>
			<polygon points="460.7,648.3 457.4,674.4 491,678.7 491.8,672.9 559.9,687.4 518.8,655.6 			"/>
			<path fill="#D1D1D1" d="M509.2,654.4c0,0,14.4,17.4,28.3,15.7l-18.7-14.4L509.2,654.4z"/>
		</g>
		<path fill="#191919" d="M518.2,481.5c-19.8-2.5-38,11.6-40.5,31.4l-17.1,135.4l71.9,9.1l17.1-135.4
			C552.1,502.1,538.1,484,518.2,481.5z"/>
	</g>
	<g>
		<g>
			<path fill="#FCDA4F" d="M253.4,591.4c12.5,24.3,3,54.1-21.3,66.7c-24.3,12.5-213.9,85.5-226.4,61.2
				c-12.5-24.3,156.8-136.6,181-149.1C211,557.6,240.8,567.1,253.4,591.4z"/>
			<path fill="#F2A825" d="M239.4,598.6c9.5,18.5,2.3,41.2-16.2,50.7s-162.8,65-172.3,46.6s119.3-104,137.8-113.5
				S229.9,580.1,239.4,598.6z"/>
		</g>
		<path fill="#D1D1D1" d="M258.2,588.6c13.9,26.8,3.3,59.8-23.5,73.7c-26.8,13.9-46.2-3.7-60.1-30.6c-13.9-26.8-17-52.8,9.9-66.7
			C211.4,551.2,244.4,561.8,258.2,588.6z"/>
		<path fill="#B5B5B5" d="M198.7,560.1c-14.2,14.6-10.2,36.3,1.3,58.5s26.8,38.1,46.9,35c17.4-16.3,22.7-42.8,11.2-65
			C246.7,566.4,222.1,555.3,198.7,560.1z"/>
		<circle fill="#383838" cx="302.3" cy="567.8" r="70.4"/>
		<path fill="#D1D1D1" d="M639.1,314.7L282.7,498.6c-34.6,17.8-48.1,60.3-30.3,94.9c17.8,34.6,60.3,48.1,94.9,30.3
			c0.4-0.2,0.8-0.5,1.3-0.7l355.1-183.3L639.1,314.7z"/>
		<path fill="#B5B5B5" d="M795,313.3c0,0-52.3,106.3-86.8,124.2c-34.6,17.9-77.1,4.3-95-30.3s-4.3-77.1,30.3-95S795,313.3,795,313.3
			z"/>
		<path fill="#3B5BA3" d="M627.4,399.9c-16.3-31.5-6.4-69.6,21.6-89.6c-2.6,0.8-5,1.7-7.1,2.8c-34.6,17.9-48.2,60.4-30.3,95
			c17.9,34.6,60.4,48.2,95,30.3c2.1-1.1,4.2-2.5,6.4-4.1C680.4,445.4,643.6,431.4,627.4,399.9z"/>
		<g>
			<path fill="#293E68" d="M591.6,414.1c7.2,14,1.7,31.1-12.2,38.4c-14,7.2-31.1,1.7-38.4-12.2c-7.2-14-1.7-31.1,12.2-38.4
				C567.2,394.6,584.4,400.1,591.6,414.1z"/>
			<circle fill="#3B5BA3" cx="560.7" cy="430" r="28.5"/>
			<circle fill="#9DD3F4" cx="559.7" cy="429.6" r="18.7"/>
		</g>
		<g>
			<path fill="#293E68" d="M519.3,451.4c7.2,14,1.7,31.1-12.2,38.4c-14,7.2-31.1,1.7-38.4-12.2c-7.2-14-1.7-31.1,12.2-38.4
				C494.9,431.9,512.1,437.4,519.3,451.4z"/>
			<circle fill="#3B5BA3" cx="488.4" cy="467.3" r="28.5"/>
			<circle fill="#9DD3F4" cx="487.4" cy="466.9" r="18.7"/>
		</g>
		<path fill="#3B5BA3" d="M304.7,631.3c0,0-17.6,33.5-34.3,57.1c-9.8,13.8-63.1,51.7-63.1,51.7l-2.7,10c0,0,98.7-51.1,119.4-70.8
			c20.1-19.1,62.9-90.4,62.9-90.4L304.7,631.3z"/>
		<path fill="#3B5BA3" d="M251.7,530.4c0,0-37.5-5.1-66.4-5.1c-16.9,0-78.7,21.5-78.7,21.5l-9.7-3.5c0,0,98.8-50.8,126.8-56.3
			c27.3-5.3,110.1,1.1,110.1,1.1L251.7,530.4z"/>
	</g>
	<path fill="#383838" d="M371.6,373.4c-18,8.8-25.4,30.5-16.6,48.4l60,122.6c8.8,18,30.5,25.4,48.4,16.6c18-8.8,25.4-30.5,16.6-48.4
		l-60-122.6C411.3,372.1,389.6,364.6,371.6,373.4z"/>
	<g>
		<g>
			<polygon fill="#191919" points="387,655.4 382.2,681.3 415.6,687.5 416.7,681.7 483.9,699.9 444.6,666 			"/>
			<path fill="#D1D1D1" d="M435.1,664.2c0,0,13.4,18.2,27.4,17.2L444.6,666L435.1,664.2z"/>
		</g>
		<path fill="#383838" d="M453.7,492c-19.7-3.6-38.5,9.4-42.1,29.1L387,655.4l71.2,13l24.6-134.3C486.4,514.5,473.4,495.6,453.7,492
			z"/>
	</g>
	<path fill="#304E9C" d="M449.9,283.4c-2.5-15.1-20.3-24.7-35.4-22.1c-1.1,0.2-59.7,10.1-59.7,10.1l0,0
		c-14.6,2.9-24.3,16.8-21.9,31.5l0,0L351.2,412l129.3-21.8C480.6,390.3,450.1,284.4,449.9,283.4z"/>
	<path fill="#D1D1D1" d="M417.4,270.8c0,0,20,28.2,13.4,57.6c-0.9,4-8.9,13.2-19.8,15.1c-10.7,1.8,6.5-12.9,8.5-28.8
		C420.9,303.8,417.4,270.8,417.4,270.8z"/>
	<g>
		<path fill="#FFB266" d="M388.4,212.3c2.1,10.3,10.1,17.4,17.9,15.8c7.8-1.6,12.4-11.2,10.4-21.5L388.4,212.3z"/>
		<path fill="#FFC885" d="M362.5,197.4c-10.3,2.1-9.6,11.6-9.6,11.6s1.6,7.7,2,10c3.9,19.4,14.5,16.5,14.5,16.5l1.9,9.5l4.5,22.4
			l40.4,1.9l-0.9-9.5l-9.1-21.9c8.3-1.7,9.4-9.4,8.5-13.8l-7.2-35.9L362.5,197.4z"/>
		<path fill="#000851" d="M382,207.6l7.8-1.6c0.7-0.1,1.1-0.8,1-1.5l0,0c-0.1-0.7-0.8-1.1-1.5-1l-7.8,1.6c-0.7,0.1-1.1,0.8-1,1.5
			l0,0C380.7,207.3,381.4,207.7,382,207.6z"/>
		<path fill="#000851" d="M400.7,203.8l7.8-1.6c0.7-0.1,1.1-0.8,1-1.5l0,0c-0.1-0.7-0.8-1.1-1.5-1l-7.8,1.6c-0.7,0.1-1.1,0.8-1,1.5
			l0,0C399.4,203.5,400.1,203.9,400.7,203.8z"/>
		<path fill="#000851" d="M367,227.4l0.2-0.3c0.3-0.6,0.1-1.3-0.4-1.6l-6.8-3.9c-0.6-0.3-1.3-0.1-1.6,0.4l-0.2,0.3
			c-0.3,0.6-0.1,1.3,0.4,1.6l6.8,3.9C365.9,228.1,366.7,227.9,367,227.4z"/>
		<path fill="#000851" d="M400.9,225c-2.9,0.6-6.5,0.7-8.2-1.5c-0.2-0.3-0.2-0.7,0.1-0.9c0.3-0.2,0.7-0.2,0.9,0.1
			c2.1,2.7,8.8,0.7,11.2-0.3c0.3-0.1,0.7,0,0.9,0.4c0.1,0.3,0,0.7-0.4,0.9C405.3,223.8,403.4,224.6,400.9,225z"/>
		<circle fill="#000851" cx="393.8" cy="210.9" r="1.7"/>
		<circle fill="#000851" cx="407.7" cy="208.1" r="1.7"/>
		<polygon fill="#000851" points="398.4,209.2 407.7,218.1 400.5,219.5 		"/>
		<path fill="#000851" d="M406.9,175.7c0.5,2.7,0.1,7.3-4.6,8.2l-30.2,6.1c0,0-3.9,0.4-5.9,2.7c-1.7-0.6-3.7-0.8-5.6-0.4
			c-5.9,1.2-9.7,6.9-8.5,12.8c0.1,0.4,2.8,13.9,2.8,13.9l10.8-2.1c0,0,12.1,10.1,13,10.6l-5.2-26.2l35.2-7.1c0,0,0,0,0,0
			c0,0,0,0,0,0c6.2-1.3,7.5-7.3,6.9-10.4C415.2,181.3,413.8,174.3,406.9,175.7z"/>
		<polygon fill="#FFB266" points="406.4,238 392,240.9 415.5,259.8 		"/>
	</g>
	<path fill="#3B5BA3" d="M333.1,341.7c19.6,8.3,42.3-0.9,50.6-20.6c8.3-19.6-0.9-42.3-20.6-50.6l-91.7-42.2
		c-19.6-8.3-42.3,0.9-50.6,20.6c-8.3,19.6,0.9,42.3,20.6,50.6L333.1,341.7z"/>
	<g>
		<path fill="#FFC885" d="M170.4,217.3l-43.5-55.6c-2.1-2.7-1.6-6.6,1.1-8.6l2.7-2.1c2.7-2.1,6.6-1.6,8.6,1.1
			c-2.1-2.7-1.6-6.6,1.1-8.6l2.7-2.1c2.7-2.1,6.6-1.6,8.6,1.1c-2.1-2.7-1.6-6.6,1.1-8.6l2.7-2.1c2.7-2.1,6.6-1.6,8.6,1.1
			c-2.1-2.7-1.6-6.6,1.1-8.6l2.7-2.1c2.7-2.1,6.6-1.6,8.6,1.1l5.6,7.2c6.8-4.7,16.2-3.3,21.3,3.3l28,36.1L170.4,217.3z"/>
		<path fill="#3B5BA3" d="M214.2,147.5l69.3,89c13.1,16.8,10,41.1-6.8,54.2c-16.8,13.1-41.1,10-54.2-6.8l-69.4-88.7L214.2,147.5z"/>
	</g>
</g>
</svg>
