<svg id="Capa_1" data-name="Capa 1" xmlns="http://www.w3.org/2000/svg" viewBox="0 0 1245.88 1515.35"><title>Mesa de trabajo 2</title><path d="M788.44,305a43.49,43.49,0,0,1-85.05,8.56,14.76,14.76,0,1,1-2.93-28.85,14.67,14.67,0,0,1,4,.93A43.5,43.5,0,0,1,788.44,305Z" fill="#d6802b"/><polygon points="896.3 1283.34 783.83 1369.68 840.63 1459.42 1045.11 1469.64 908.79 1410.57 937.19 1352.64 896.3 1283.34" fill="#d6802b"/><polygon points="805.42 1352.64 861.08 1448.06 1045.11 1469.64 840.63 1459.42 783.83 1369.68 805.42 1352.64" fill="#030303"/><polygon points="884.94 1290.16 847.45 1321.96 919.02 1388.99 937.19 1352.64 884.94 1290.16" fill="#a85d23"/><polygon points="288.75 368.54 275.33 460.24 271.26 488.07 268.22 508.83 202.13 490.76 190.61 487.61 179.03 452.06 170.62 426.26 31.67 478.86 185.48 343.73 288.75 368.54" fill="#d6802b"/><polygon points="285.14 395.8 178.73 366.13 31.67 478.86 185.48 343.73 288.75 368.54 285.14 395.8" fill="#030303"/><polygon points="275.33 460.24 179.03 452.06 190.61 487.61 202.13 490.76 271.26 488.07 275.33 460.24" fill="#a85d23"/><path d="M735.62,635.67S368,871.42,306.38,620.66c0,0-19.31-137.08-26.62-139.36s-87.9,7.58-96.91,6.65S146.05,978.92,375,954.1c256.47-27.81,430.82-186,430.82-186Z" fill="#030303"/><path d="M518.81,812.44l-3.94,2.49a11.24,11.24,0,0,1-15.51-3.5L475.81,774.2,460.12,881.77a13.57,13.57,0,0,1-27-1.95,13.15,13.15,0,0,1,.14-2l11.82-81q-2.88,1.33-5.89,2.39l-12.38,84.84a13.57,13.57,0,0,1-27-1.94,13.18,13.18,0,0,1,.14-2l11.37-77.9c-1.18-.14-2.37-.32-3.56-.53-.55-.1-1.09-.2-1.63-.32l-10.08,69.09a13.57,13.57,0,0,1-27-2,13.15,13.15,0,0,1,.14-2l11.23-77a59.56,59.56,0,0,1-4.6-3.93l-10.18,69.79a13.57,13.57,0,0,1-27-2,13.15,13.15,0,0,1,.14-2l11.88-81.44,4.73-32.38v0l6.74-46.2,1.67.24,7.68-43.3,120.9,26.15-9.52,59.92,39.44,62.39A11.25,11.25,0,0,1,518.81,812.44Z" fill="#d6802b"/><path d="M607.78,886.53s434.18,53,321.85,290.28c0,0-72.52,120.39-68.32,126.92s72.69,51,79.06,57.64S1255,1032,1089.31,870C894.79,679.71,659.73,626.27,659.73,626.27Z" fill="#030303"/><circle cx="107.65" cy="555.97" r="43.49" fill="#d6802b"/><path d="M791.37,257.61a28.27,28.27,0,0,1-47.94,17.77c-.16.29-.32.57-.5.85a23.21,23.21,0,0,1-11.11,9.38l-.22.09a23,23,0,0,1-10.43,1.5l-1-.1h-.06a23.2,23.2,0,0,1-20.07-25,19.67,19.67,0,0,1,.33-2.34s0,0,0-.06.06-.33.1-.49l.06-.25c0-.15.06-.29.1-.44a32.61,32.61,0,0,1-20.56-33.15,32.11,32.11,0,0,1,2.47-9.93c.07-.18.14-.36.22-.53a32.64,32.64,0,0,1,14.11-15.33l.07,0a31.61,31.61,0,0,1,5.92-2.51A32.6,32.6,0,0,1,745.08,231c-.08,1-.21,1.93-.38,2.88a28.25,28.25,0,0,1,46.67,23.76Z" fill="#395da3"/><polygon points="806.05 761.73 806.05 762.21 537.16 697.01 664.29 360.44 666.18 355.45 666.67 354.14 666.84 354.16 693.59 357.53 781.39 368.6 788.82 369.54 791.81 369.92 803.74 371.42 804.65 526.13 806.05 761.73" fill="#d6802b"/><polygon points="668.09 371.36 640.88 501.39 521.25 527.25 490.75 684.85 481.4 733.19 361.61 704.08 359.84 703.65 362.3 674.18 364.53 647.44 381.64 442.48 666.68 354.38 668.09 371.36" fill="#d6802b"/><circle cx="623.68" cy="1168.16" r="71.74" fill="#c84348"/><polygon points="593.01 37.77 706.18 106.9 581.08 178.24 593.01 37.77" fill="#c84348"/><polygon points="1152.87 731.3 996.34 629.12 1024.61 750.86 1152.87 731.3" fill="#d6802b"/><polygon points="931.82 277.26 903.56 227.25 851.38 253.34 931.82 277.26" fill="#d6802b"/><path d="M692.48,986.25,536,1088.43l10.87-89.14,32.61,19.57s-4.34-69.57,2.18-67.4,50,43.48,50,43.48l19.57-45.65S690.31,988.42,692.48,986.25Z" fill="#d6802b"/><circle cx="931.98" cy="604.55" r="40.91" fill="#c84348"/><polygon points="722.69 997.08 912.56 1096.69 805.95 1248.43 735.14 1198.63 801.28 1106.02 710.24 1088.13 722.69 997.08" fill="#395da3"/><polygon points="1120.97 219.71 1120.96 219.73 1106.08 262.49 1105.44 264.34 1105.34 264.64 1105.33 264.65 1091.74 303.73 1035.74 464.67 1011.65 533.9 806.19 526.19 804.65 526.13 787.62 525.49 803.74 371.42 812.24 372.03 918.03 379.63 976.42 239.66 984.94 219.22 985.02 219.05 986.1 216.45 1002.34 177.53 1002.38 177.42 1005 171.13 1008.21 163.46 1011.91 154.58 1058.95 182.68 1058.99 182.69 1120.97 219.71" fill="#d6802b"/><polygon points="1033.13 177.62 1032.86 178.46 1031.88 178.15 1033.13 177.62" fill="#d6802b"/><path d="M1171.79,61.82a13.61,13.61,0,0,1-.65,4.15l-45.56,141.9v0h0l-3.87,12-.74-.24-.85-.27-14.72,41.44-14.05-5L987.59,219.05l14.79-41.63,2.35-6.61,2.27-6.39.45-1.25,2.11-5.95L981.12,89.59a11.24,11.24,0,0,1,6-14.72l4.29-1.81a11.24,11.24,0,0,1,14.72,6l17.08,40.61,33.23-103.51a13.57,13.57,0,0,1,25.84,8.3l-25,77.94a60.07,60.07,0,0,1,6.25-1.4l25.09-78.18a13.57,13.57,0,1,1,25.85,8.29l-23,71.53c1.13.32,2.26.69,3.38,1.09.46.16.92.33,1.37.51L1117.84,37a13.57,13.57,0,1,1,25.85,8.29l-24,74.75a61.42,61.42,0,0,1,4,4.8l21.55-67.15a13.57,13.57,0,0,1,26.5,4.14Z" fill="#d6802b"/><polygon points="530.92 303.47 449.97 160.25 300.53 234.97 530.92 303.47" fill="#d6802b"/><polygon points="918.03 379.63 940.33 398.5 923.99 364.65 918.03 379.63" fill="#a85d23"/><path d="M1036.7,123.61s39.23,7.94,26.77,73" fill="none" stroke="#030303" stroke-miterlimit="10" stroke-width="2.03"/><path d="M1038.36,104.37s67-10.19,92.73,35.36" fill="none" stroke="#030303" stroke-miterlimit="10" stroke-width="2.03"/><path d="M788.82,369.54c-3.26,17.59-26.3,131-73.48,109l-.16-.08h0c-48.58-22.91-23.89-112.84-21.57-120.88l.17-.58-29-3.67-1,2.18.22,1.74.22,2s0,.42.07,1.22c.68,12.58,4.64,118.78-53.24,148.71L538.23,696.79l267.82,64.94,1.06.26-.93-235.5v-.3l6-153.09,0-1.07-8.5-.61-11.93-1.5Z" fill="#395da3"/><path d="M608.63,508.26c-1.53,6.07,38.77,206.72,197.42,254L537.17,697Z" fill="#2b4271"/><path d="M788.82,369.54l-7.43-.94c-2.33,12.78-22.62,113.91-70.85,107.29,0,0,2.12,1.24,4.62,2.52h0c6,3.76,17.71,8,30.66-4.24,14.8-14,35.39-45,46.95-104l-1-.25Z" fill="#a85d23"/><path d="M812.24,372S952.53,479,1041.45,446.91l-28,87.1-207.25-7.53Z" fill="#a85d23"/><path d="M742.93,276.23a23.21,23.21,0,0,1-11.11,9.38l-.22.09a23,23,0,0,1-10.43,1.5l-1-.1h-.06a23.2,23.2,0,0,1-20.07-25,19.67,19.67,0,0,1,.33-2.34c.12-.15.24-.3.37-.44l-.26-.11.06-.25c0-.15.06-.29.1-.44a32.61,32.61,0,0,1-20.56-33.15,32.11,32.11,0,0,1,2.47-9.93c.07-.18.14-.36.22-.53a32.64,32.64,0,0,1,14.11-15.33l.07,0a31.61,31.61,0,0,1,5.92-2.51l1.45,2.42S691,247,714.07,249.09C714.07,249.09,707.45,280.62,742.93,276.23Z" fill="#2b4271"/><polygon points="1108 263.23 1107.32 265.23 1107.27 265.37 1107.09 265.31 1105.33 264.65 1091.74 303.73 976.42 239.66 984.94 219.22 981.35 217.87 981.42 217.69 982.51 215.07 986.1 216.45 988.22 217.26 988.23 217.26 1058.84 244.36 1058.96 244.41 1094.59 258.08 1106.08 262.49 1108 263.23" fill="#a85d23"/><polygon points="1126.4 208.23 1125.57 207.93 1062.46 184.77 1013.61 166.84 1008.66 165.02 1007.7 164.67 1007 164.42 1006.36 164.18 1006.92 162.97 1007.45 163.17 1009.56 157.22 1010.62 157.68 1034.73 168.21 1125.58 207.87 1126.4 208.23" fill="#a85d23"/><polygon points="484.87 737.73 482.25 738.36 379.1 763.27 362.36 767.31 350.66 770.13 355.39 737.75 355.39 737.73 484.87 737.73" fill="#a85d23"/><polygon points="492.38 674.62 366.91 674.2 362.3 674.18 364.53 647.44 371.4 648.9 492.38 674.62" fill="#a85d23"/><path d="M391.56,673.43,465.5,506,664.22,359.22s7.37,128-55.11,154.08l-88,14.84-28.7,146.48Z" fill="#a85d23"/><path d="M1131.43,210.14l-21.34,56.3-2.82-1.07-.18-.06-1.75-.67L985,219.05l-3.6-1.36-8.36-3.17,21.33-56.3h0l12.52,4.74.53.2.76.29.85.32,3.88,1.47,46,17.43h0l66.58,25.23.83.31Z" fill="#395da3"/><path d="M1107.27,265.38h0l-.18-.06-1.76-.66L984.94,219.22l-3.59-1.35-9.83-3.71,22.87-55.94h0c.23.3,4.05,5.11,10.33,12.58l.27.32c17.83,21.19,54.92,63.15,86.34,84.78h0c1.08.74,2.15,1.47,3.23,2.16a104.58,104.58,0,0,0,10.85,6.26c.63.32,1.26.62,1.88.89.93.44,1.86.84,2.77,1.21Z" fill="#2b4271"/><rect x="338.26" y="674.12" width="162.45" height="63.61" fill="#395da3"/><polygon points="500.71 674.12 500.71 674.27 338.26 737.73 338.26 674.12 500.71 674.12" fill="#2b4271"/></svg>