<svg xmlns="http://www.w3.org/2000/svg" xmlns:xlink="http://www.w3.org/1999/xlink" version="1.1" id="Layer_1" x="0px" y="0px" width="100px" height="100px" viewBox="0 0 100 100" style="enable-background:new 0 0 100 100;" xml:space="preserve"><g xmlns="http://www.w3.org/2000/svg" id="271392320_base_grid">
	
		<linearGradient id="271392320_SVGID_1__grid" gradientUnits="userSpaceOnUse" x1="369.2637" y1="-335.7383" x2="362.2697" y2="-323.8696" gradientTransform="matrix(1 0 0 -1 -294 -250)">
		<stop offset="0" style="stop-color:#000000;stop-opacity:0"></stop>
		<stop offset="1" style="stop-color:#000000"></stop>
	</linearGradient>
	<polyline class="st1" points="44.088,90.575 89.578,63.868 100,69.977 55.645,96.942 44.088,90.575  " style="opacity:0.15;fill:url(#271392320_SVGID_1__grid);enable-background:new    ;;" fill="url(&quot;#271392320_SVGID_1__grid&quot;)"></polyline>
	<path class="st12" d="M93.94,64.43l-0.011,3.28c0,0.59-0.39,1.18-1.17,1.63L52.94,92.37l-0.011,0.01c-1.569,0.9-4.12,0.9-5.699,0   c-0.011,0-0.011,0-0.011-0.01L7.13,69.34c-0.8-0.46-1.189-1.06-1.189-1.66l0.01-3.27c0-0.59,0.39-1.19,1.17-1.64l39.83-23.03   c1.569-0.91,4.13-0.91,5.71,0l40.08,23.03C93.54,63.23,93.94,63.83,93.94,64.43z" style="fill:#D0DEE2;;" fill="rgb(208, 222, 226)"></path>
	<path class="st9" d="M47.227,89.098L7.139,66.063c-0.795-0.456-1.191-1.056-1.189-1.655L5.94,67.682   c-0.003,0.6,0.395,1.199,1.188,1.655l40.088,23.036c0.003,0.002,0.007,0.003,0.01,0.005v-0.005V89.098z" style="opacity:0.1;;"></path>
	<path class="st4" d="M47.227,89.098v3.275v0.005c1.587,0.904,4.134,0.903,5.7-0.001l0.009-0.005v-3.271   C51.367,90.008,48.812,90.008,47.227,89.098z" style="opacity:0.12;;"></path>
	<path class="st10" d="M92.77,66.063L52.936,89.102v3.271l39.825-23.035c0.778-0.451,1.167-1.04,1.169-1.632l0.01-3.273   C93.938,65.022,93.548,65.611,92.77,66.063z" style="opacity:0.2;;"></path>
</g><linearGradient xmlns="http://www.w3.org/2000/svg" id="271392320_SVGID_2__grid" gradientUnits="userSpaceOnUse" x1="67.1982" y1="79.4424" x2="64.301" y2="74.5297">
	<stop offset="0" style="stop-color:#000000;stop-opacity:0"></stop>
	<stop offset="1" style="stop-color:#000000"></stop>
</linearGradient><polygon xmlns="http://www.w3.org/2000/svg" class="st8" points="66.682,57.578 37.761,74.383 57.739,86.323 87.545,69.084 " style="opacity:0.15;fill:url(#271392320_SVGID_2__grid);;" fill="url(&quot;#271392320_SVGID_2__grid&quot;)"></polygon><g xmlns="http://www.w3.org/2000/svg">
	<g>
		<polygon class="stshockcolor" points="46.444,79.547 28.3,68.897 40.034,62.069 51.071,68.575   " style="fill:#E5E3E1;;" fill="rgb(229, 227, 225)"></polygon>
		<polygon class="st9" points="46.444,79.547 28.3,68.897 40.034,62.069 51.071,68.575   " style="opacity:0.1;;"></polygon>
	</g>
	<g>
		<polygon class="stshockcolor" points="51.071,68.575 57.839,64.646 69.702,66.015 46.444,79.547   " style="fill:#E5E3E1;;" fill="rgb(229, 227, 225)"></polygon>
		<polygon class="st11" points="51.071,68.575 57.839,64.646 69.702,66.015 46.444,79.547   " style="opacity:0.3;;"></polygon>
	</g>
	<g>
		<path class="stshockcolor" d="M48.629,25.991H29.314l32.828,19.267L72.92,40.84c0.708-0.291,1.498-0.352,2.229-0.122    c0.123,0.039,0.228,0.079,0.298,0.121l0,0c-0.652-0.483-1.333-0.927-2.036-1.33L50.834,26.578    C50.162,26.193,49.402,25.991,48.629,25.991z" style="fill:#E5E3E1;;" fill="rgb(229, 227, 225)"></path>
		<path class="st5" d="M48.629,25.991H29.314l32.828,19.267L72.92,40.84c0.708-0.291,1.498-0.352,2.229-0.122    c0.123,0.039,0.228,0.079,0.298,0.121l0,0c-0.652-0.483-1.333-0.927-2.036-1.33L50.834,26.578    C50.162,26.193,49.402,25.991,48.629,25.991z" style="opacity:0.15;;"></path>
	</g>
	<g>
		<path class="stshockcolor" d="M59.172,40.444h14.715c1.284,0,2.109,0.392,2.113,1.861v14.796c0.002,0.854-0.256,1.819-0.745,2.686    C74.933,60.357,62.223,75.77,62.223,75.77L59.172,40.444z" style="fill:#E5E3E1;;" fill="rgb(229, 227, 225)"></path>
		<path class="st6" d="M59.172,40.444h14.715c1.284,0,2.109,0.392,2.113,1.861v14.796c0.002,0.854-0.256,1.819-0.745,2.686    C74.933,60.357,62.223,75.77,62.223,75.77L59.172,40.444z" style="opacity:0.25;;"></path>
	</g>
</g><g xmlns="http://www.w3.org/2000/svg">
	<g>
		<polygon class="st0" points="60.65,47.61 60.58,72.79 26.49,54.01 26.56,28.83   " style="fill:#47475E;;" fill="rgb(71, 71, 94)"></polygon>
		<polygon class="st13" points="47.844,45.185 52.401,54.533 60.653,59.047 60.646,61.319 51.348,56.23 47.795,48.959     39.302,56.433 34.738,47.081 26.486,42.516 26.495,40.242 35.799,45.388 39.346,52.661   " style="fill:#75A2D8;;" fill="rgb(117, 162, 216)"></polygon>
	</g>
	<g>
		<polygon class="st14" points="60.65,49.7 60.65,63.8 44.96,63.8 26.49,53.03 26.49,48.18 58.04,48.18   " style="opacity:0.3;fill:#231F20;;" fill="rgb(35, 31, 32)"></polygon>
	</g>
	<g>
		<polygon class="st7" points="58.04,48.18 26.49,48.18 26.49,29.78   " style="opacity:0.15;fill:#FFFFFF;;" fill="rgb(255, 255, 255)"></polygon>
	</g>
</g><g xmlns="http://www.w3.org/2000/svg">
	<g>
		<path class="stshockcolor" d="M29.609,52.313l0.062-22.009c0.001-0.225,0.078-0.382,0.204-0.456l-2.094,1.229    c-0.125,0.074-0.203,0.23-0.204,0.455l-0.062,22.009c-0.001,0.448,0.313,0.999,0.699,1.224l2.094-1.229    C29.923,53.311,29.607,52.76,29.609,52.313z" style="fill:#E5E3E1;;" fill="rgb(229, 227, 225)"></path>
		<path class="st6" d="M29.609,52.313l0.062-22.009c0.001-0.225,0.078-0.382,0.204-0.456l-2.094,1.229    c-0.125,0.074-0.203,0.23-0.204,0.455l-0.062,22.009c-0.001,0.448,0.313,0.999,0.699,1.224l2.094-1.229    C29.923,53.311,29.607,52.76,29.609,52.313z" style="opacity:0.25;;"></path>
	</g>
	<g>
		<path class="stshockcolor" d="M59.813,70.739L30.309,53.536l-2.094,1.229l29.504,17.203c0.193,0.113,0.37,0.123,0.498,0.049l2.094-1.229    C60.183,70.862,60.006,70.853,59.813,70.739z" style="fill:#E5E3E1;;" fill="rgb(229, 227, 225)"></path>
		<path class="st5" d="M59.813,70.739L30.309,53.536l-2.094,1.229l29.504,17.203c0.193,0.113,0.37,0.123,0.498,0.049l2.094-1.229    C60.183,70.862,60.006,70.853,59.813,70.739z" style="opacity:0.15;;"></path>
	</g>
	<g>
		<path class="stshockcolor" d="M30.356,23.292c-0.585-0.341-1.115-0.373-1.498-0.148l-4.169,2.528c0.383-0.225,0.913-0.193,1.498,0.149    l33.714,19.658l4.169-2.528L30.356,23.292z" style="fill:#E5E3E1;;" fill="rgb(229, 227, 225)"></path>
		<path class="st3" d="M30.356,23.292c-0.585-0.341-1.115-0.373-1.498-0.148l-4.169,2.528c0.383-0.225,0.913-0.193,1.498,0.149    l33.714,19.658l4.169-2.528L30.356,23.292z" style="opacity:0.05;;"></path>
	</g>
	<path class="stshockcolor" d="M59.901,45.479c1.163,0.678,2.108,2.324,2.104,3.674l-0.075,26.903c-0.004,1.35-0.955,1.89-2.118,1.212   L26.099,57.609c-1.163-0.678-2.103-2.321-2.099-3.67l0.075-26.903c0.004-1.35,0.949-1.894,2.112-1.215L59.901,45.479z    M58.423,71.563l0.062-22.01c0.001-0.455-0.314-0.999-0.699-1.224L28.281,31.126c-0.386-0.225-0.703-0.049-0.704,0.405   l-0.062,22.009c-0.001,0.448,0.313,0.999,0.699,1.224l29.504,17.203C58.104,72.193,58.421,72.011,58.423,71.563" style="fill:#E5E3E1;;" fill="rgb(229, 227, 225)"></path>
	<g>
		<path class="stshockcolor" d="M64.07,42.95l-4.169,2.528c1.163,0.678,2.108,2.324,2.104,3.674l-0.075,26.903    c-0.002,0.669-0.236,1.139-0.614,1.36l4.169-2.528c0.378-0.222,0.612-0.691,0.614-1.36l0.075-26.903    C66.179,45.274,65.233,43.628,64.07,42.95z" style="fill:#E5E3E1;;" fill="rgb(229, 227, 225)"></path>
		<path class="st10" d="M64.07,42.95l-4.169,2.528c1.163,0.678,2.108,2.324,2.104,3.674l-0.075,26.903    c-0.002,0.669-0.236,1.139-0.614,1.36l4.169-2.528c0.378-0.222,0.612-0.691,0.614-1.36l0.075-26.903    C66.179,45.274,65.233,43.628,64.07,42.95z" style="opacity:0.2;;"></path>
	</g>
</g></svg>